<?xml version="1.0" encoding="UTF-8" standalone="no"?>
<svg width="21.1667mm"
     height="19.4028mm"
     viewBox="0 0 60 55" xmlns="http://www.w3.org/2000/svg" version="1.2" baseProfile="tiny">
    <title>Qt SVG Document</title>
    <desc>Generated with Qt</desc>
    <defs>
    </defs>
    <g fill="none" stroke="black" stroke-width="1" fill-rule="evenodd" stroke-linecap="square" stroke-linejoin="bevel">

        <g fill="#7e7e7e" fill-opacity="1" stroke="#989898" stroke-opacity="1" stroke-width="1" stroke-linecap="square"
           stroke-linejoin="bevel" transform="matrix(1,0,0,1,0,0)"
           font-family="" font-size="2.5" font-weight="400" font-style="normal"
        >
            <rect x="0" y="0" width="5" height="5"/>
        </g>

        <g fill="#7e7e7e" fill-opacity="1" stroke="#989898" stroke-opacity="1" stroke-width="1" stroke-linecap="square"
           stroke-linejoin="bevel" transform="matrix(1,0,0,1,0,0)"
           font-family="" font-size="2.5" font-weight="400" font-style="normal"
        >
            <rect x="5" y="0" width="5" height="5"/>
        </g>

        <g fill="#7e7e7e" fill-opacity="1" stroke="#989898" stroke-opacity="1" stroke-width="1" stroke-linecap="square"
           stroke-linejoin="bevel" transform="matrix(1,0,0,1,0,0)"
           font-family="" font-size="2.5" font-weight="400" font-style="normal"
        >
            <rect x="10" y="0" width="5" height="5"/>
        </g>

        <g fill="#7e7e7e" fill-opacity="1" stroke="#989898" stroke-opacity="1" stroke-width="1" stroke-linecap="square"
           stroke-linejoin="bevel" transform="matrix(1,0,0,1,0,0)"
           font-family="" font-size="2.5" font-weight="400" font-style="normal"
        >
            <rect x="15" y="0" width="5" height="5"/>
        </g>

        <g fill="#7e7e7e" fill-opacity="1" stroke="#989898" stroke-opacity="1" stroke-width="1" stroke-linecap="square"
           stroke-linejoin="bevel" transform="matrix(1,0,0,1,0,0)"
           font-family="" font-size="2.5" font-weight="400" font-style="normal"
        >
            <rect x="20" y="0" width="5" height="5"/>
        </g>

        <g fill="#7e7e7e" fill-opacity="1" stroke="#989898" stroke-opacity="1" stroke-width="1" stroke-linecap="square"
           stroke-linejoin="bevel" transform="matrix(1,0,0,1,0,0)"
           font-family="" font-size="2.5" font-weight="400" font-style="normal"
        >
            <rect x="25" y="0" width="5" height="5"/>
        </g>

        <g fill="#7e7e7e" fill-opacity="1" stroke="#989898" stroke-opacity="1" stroke-width="1" stroke-linecap="square"
           stroke-linejoin="bevel" transform="matrix(1,0,0,1,0,0)"
           font-family="" font-size="2.5" font-weight="400" font-style="normal"
        >
            <rect x="30" y="0" width="5" height="5"/>
        </g>

        <g fill="#7e7e7e" fill-opacity="1" stroke="#989898" stroke-opacity="1" stroke-width="1" stroke-linecap="square"
           stroke-linejoin="bevel" transform="matrix(1,0,0,1,0,0)"
           font-family="" font-size="2.5" font-weight="400" font-style="normal"
        >
            <rect x="35" y="0" width="5" height="5"/>
        </g>

        <g fill="#7e7e7e" fill-opacity="1" stroke="#989898" stroke-opacity="1" stroke-width="1" stroke-linecap="square"
           stroke-linejoin="bevel" transform="matrix(1,0,0,1,0,0)"
           font-family="" font-size="2.5" font-weight="400" font-style="normal"
        >
            <rect x="40" y="0" width="5" height="5"/>
        </g>

        <g fill="#7e7e7e" fill-opacity="1" stroke="#989898" stroke-opacity="1" stroke-width="1" stroke-linecap="square"
           stroke-linejoin="bevel" transform="matrix(1,0,0,1,0,0)"
           font-family="" font-size="2.5" font-weight="400" font-style="normal"
        >
            <rect x="45" y="0" width="5" height="5"/>
        </g>

        <g fill="#7e7e7e" fill-opacity="1" stroke="#989898" stroke-opacity="1" stroke-width="1" stroke-linecap="square"
           stroke-linejoin="bevel" transform="matrix(1,0,0,1,0,0)"
           font-family="" font-size="2.5" font-weight="400" font-style="normal"
        >
            <rect x="50" y="0" width="5" height="5"/>
        </g>

        <g fill="#7e7e7e" fill-opacity="1" stroke="#989898" stroke-opacity="1" stroke-width="1" stroke-linecap="square"
           stroke-linejoin="bevel" transform="matrix(1,0,0,1,0,0)"
           font-family="" font-size="2.5" font-weight="400" font-style="normal"
        >
            <rect x="55" y="0" width="5" height="5"/>
        </g>

        <g fill="#7e7e7e" fill-opacity="1" stroke="#989898" stroke-opacity="1" stroke-width="1" stroke-linecap="square"
           stroke-linejoin="bevel" transform="matrix(1,0,0,1,0,0)"
           font-family="" font-size="2.5" font-weight="400" font-style="normal"
        >
            <rect x="0" y="5" width="5" height="5"/>
        </g>

        <g fill="#7e7e7e" fill-opacity="1" stroke="#989898" stroke-opacity="1" stroke-width="1" stroke-linecap="square"
           stroke-linejoin="bevel" transform="matrix(1,0,0,1,0,0)"
           font-family="" font-size="2.5" font-weight="400" font-style="normal"
        >
            <rect x="5" y="5" width="5" height="5"/>
        </g>

        <g fill="#7e7e7e" fill-opacity="1" stroke="#989898" stroke-opacity="1" stroke-width="1" stroke-linecap="square"
           stroke-linejoin="bevel" transform="matrix(1,0,0,1,0,0)"
           font-family="" font-size="2.5" font-weight="400" font-style="normal"
        >
            <rect x="10" y="5" width="5" height="5"/>
        </g>

        <g fill="#7e7e7e" fill-opacity="1" stroke="#989898" stroke-opacity="1" stroke-width="1" stroke-linecap="square"
           stroke-linejoin="bevel" transform="matrix(1,0,0,1,0,0)"
           font-family="" font-size="2.5" font-weight="400" font-style="normal"
        >
            <rect x="15" y="5" width="5" height="5"/>
        </g>

        <g fill="#7e7e7e" fill-opacity="1" stroke="#989898" stroke-opacity="1" stroke-width="1" stroke-linecap="square"
           stroke-linejoin="bevel" transform="matrix(1,0,0,1,0,0)"
           font-family="" font-size="2.5" font-weight="400" font-style="normal"
        >
            <rect x="20" y="5" width="5" height="5"/>
        </g>

        <g fill="#ffff00" fill-opacity="1" stroke="#989898" stroke-opacity="1" stroke-width="1" stroke-linecap="square"
           stroke-linejoin="bevel" transform="matrix(1,0,0,1,0,0)"
           font-family="" font-size="2.5" font-weight="400" font-style="normal"
        >
            <rect x="25" y="5" width="5" height="5"/>
        </g>

        <g fill="#ffff00" fill-opacity="1" stroke="#989898" stroke-opacity="1" stroke-width="1" stroke-linecap="square"
           stroke-linejoin="bevel" transform="matrix(1,0,0,1,0,0)"
           font-family="" font-size="2.5" font-weight="400" font-style="normal"
        >
            <rect x="30" y="5" width="5" height="5"/>
        </g>

        <g fill="#7e7e7e" fill-opacity="1" stroke="#989898" stroke-opacity="1" stroke-width="1" stroke-linecap="square"
           stroke-linejoin="bevel" transform="matrix(1,0,0,1,0,0)"
           font-family="" font-size="2.5" font-weight="400" font-style="normal"
        >
            <rect x="35" y="5" width="5" height="5"/>
        </g>

        <g fill="#7e7e7e" fill-opacity="1" stroke="#989898" stroke-opacity="1" stroke-width="1" stroke-linecap="square"
           stroke-linejoin="bevel" transform="matrix(1,0,0,1,0,0)"
           font-family="" font-size="2.5" font-weight="400" font-style="normal"
        >
            <rect x="40" y="5" width="5" height="5"/>
        </g>

        <g fill="#7e7e7e" fill-opacity="1" stroke="#989898" stroke-opacity="1" stroke-width="1" stroke-linecap="square"
           stroke-linejoin="bevel" transform="matrix(1,0,0,1,0,0)"
           font-family="" font-size="2.5" font-weight="400" font-style="normal"
        >
            <rect x="45" y="5" width="5" height="5"/>
        </g>

        <g fill="#7e7e7e" fill-opacity="1" stroke="#989898" stroke-opacity="1" stroke-width="1" stroke-linecap="square"
           stroke-linejoin="bevel" transform="matrix(1,0,0,1,0,0)"
           font-family="" font-size="2.5" font-weight="400" font-style="normal"
        >
            <rect x="50" y="5" width="5" height="5"/>
        </g>

        <g fill="#7e7e7e" fill-opacity="1" stroke="#989898" stroke-opacity="1" stroke-width="1" stroke-linecap="square"
           stroke-linejoin="bevel" transform="matrix(1,0,0,1,0,0)"
           font-family="" font-size="2.5" font-weight="400" font-style="normal"
        >
            <rect x="55" y="5" width="5" height="5"/>
        </g>

        <g fill="#7e7e7e" fill-opacity="1" stroke="#989898" stroke-opacity="1" stroke-width="1" stroke-linecap="square"
           stroke-linejoin="bevel" transform="matrix(1,0,0,1,0,0)"
           font-family="" font-size="2.5" font-weight="400" font-style="normal"
        >
            <rect x="0" y="10" width="5" height="5"/>
        </g>

        <g fill="#7e7e7e" fill-opacity="1" stroke="#989898" stroke-opacity="1" stroke-width="1" stroke-linecap="square"
           stroke-linejoin="bevel" transform="matrix(1,0,0,1,0,0)"
           font-family="" font-size="2.5" font-weight="400" font-style="normal"
        >
            <rect x="5" y="10" width="5" height="5"/>
        </g>

        <g fill="#7e7e7e" fill-opacity="1" stroke="#989898" stroke-opacity="1" stroke-width="1" stroke-linecap="square"
           stroke-linejoin="bevel" transform="matrix(1,0,0,1,0,0)"
           font-family="" font-size="2.5" font-weight="400" font-style="normal"
        >
            <rect x="10" y="10" width="5" height="5"/>
        </g>

        <g fill="#7e7e7e" fill-opacity="1" stroke="#989898" stroke-opacity="1" stroke-width="1" stroke-linecap="square"
           stroke-linejoin="bevel" transform="matrix(1,0,0,1,0,0)"
           font-family="" font-size="2.5" font-weight="400" font-style="normal"
        >
            <rect x="15" y="10" width="5" height="5"/>
        </g>

        <g fill="#ffff00" fill-opacity="1" stroke="#989898" stroke-opacity="1" stroke-width="1" stroke-linecap="square"
           stroke-linejoin="bevel" transform="matrix(1,0,0,1,0,0)"
           font-family="" font-size="2.5" font-weight="400" font-style="normal"
        >
            <rect x="20" y="10" width="5" height="5"/>
        </g>

        <g fill="#7e7e7e" fill-opacity="1" stroke="#989898" stroke-opacity="1" stroke-width="1" stroke-linecap="square"
           stroke-linejoin="bevel" transform="matrix(1,0,0,1,0,0)"
           font-family="" font-size="2.5" font-weight="400" font-style="normal"
        >
            <rect x="25" y="10" width="5" height="5"/>
        </g>

        <g fill="#7e7e7e" fill-opacity="1" stroke="#989898" stroke-opacity="1" stroke-width="1" stroke-linecap="square"
           stroke-linejoin="bevel" transform="matrix(1,0,0,1,0,0)"
           font-family="" font-size="2.5" font-weight="400" font-style="normal"
        >
            <rect x="30" y="10" width="5" height="5"/>
        </g>

        <g fill="#ffff00" fill-opacity="1" stroke="#989898" stroke-opacity="1" stroke-width="1" stroke-linecap="square"
           stroke-linejoin="bevel" transform="matrix(1,0,0,1,0,0)"
           font-family="" font-size="2.5" font-weight="400" font-style="normal"
        >
            <rect x="35" y="10" width="5" height="5"/>
        </g>

        <g fill="#7e7e7e" fill-opacity="1" stroke="#989898" stroke-opacity="1" stroke-width="1" stroke-linecap="square"
           stroke-linejoin="bevel" transform="matrix(1,0,0,1,0,0)"
           font-family="" font-size="2.5" font-weight="400" font-style="normal"
        >
            <rect x="40" y="10" width="5" height="5"/>
        </g>

        <g fill="#7e7e7e" fill-opacity="1" stroke="#989898" stroke-opacity="1" stroke-width="1" stroke-linecap="square"
           stroke-linejoin="bevel" transform="matrix(1,0,0,1,0,0)"
           font-family="" font-size="2.5" font-weight="400" font-style="normal"
        >
            <rect x="45" y="10" width="5" height="5"/>
        </g>

        <g fill="#7e7e7e" fill-opacity="1" stroke="#989898" stroke-opacity="1" stroke-width="1" stroke-linecap="square"
           stroke-linejoin="bevel" transform="matrix(1,0,0,1,0,0)"
           font-family="" font-size="2.5" font-weight="400" font-style="normal"
        >
            <rect x="50" y="10" width="5" height="5"/>
        </g>

        <g fill="#7e7e7e" fill-opacity="1" stroke="#989898" stroke-opacity="1" stroke-width="1" stroke-linecap="square"
           stroke-linejoin="bevel" transform="matrix(1,0,0,1,0,0)"
           font-family="" font-size="2.5" font-weight="400" font-style="normal"
        >
            <rect x="55" y="10" width="5" height="5"/>
        </g>

        <g fill="#7e7e7e" fill-opacity="1" stroke="#989898" stroke-opacity="1" stroke-width="1" stroke-linecap="square"
           stroke-linejoin="bevel" transform="matrix(1,0,0,1,0,0)"
           font-family="" font-size="2.5" font-weight="400" font-style="normal"
        >
            <rect x="0" y="15" width="5" height="5"/>
        </g>

        <g fill="#7e7e7e" fill-opacity="1" stroke="#989898" stroke-opacity="1" stroke-width="1" stroke-linecap="square"
           stroke-linejoin="bevel" transform="matrix(1,0,0,1,0,0)"
           font-family="" font-size="2.5" font-weight="400" font-style="normal"
        >
            <rect x="5" y="15" width="5" height="5"/>
        </g>

        <g fill="#7e7e7e" fill-opacity="1" stroke="#989898" stroke-opacity="1" stroke-width="1" stroke-linecap="square"
           stroke-linejoin="bevel" transform="matrix(1,0,0,1,0,0)"
           font-family="" font-size="2.5" font-weight="400" font-style="normal"
        >
            <rect x="10" y="15" width="5" height="5"/>
        </g>

        <g fill="#7e7e7e" fill-opacity="1" stroke="#989898" stroke-opacity="1" stroke-width="1" stroke-linecap="square"
           stroke-linejoin="bevel" transform="matrix(1,0,0,1,0,0)"
           font-family="" font-size="2.5" font-weight="400" font-style="normal"
        >
            <rect x="15" y="15" width="5" height="5"/>
        </g>

        <g fill="#ffff00" fill-opacity="1" stroke="#989898" stroke-opacity="1" stroke-width="1" stroke-linecap="square"
           stroke-linejoin="bevel" transform="matrix(1,0,0,1,0,0)"
           font-family="" font-size="2.5" font-weight="400" font-style="normal"
        >
            <rect x="20" y="15" width="5" height="5"/>
        </g>

        <g fill="#7e7e7e" fill-opacity="1" stroke="#989898" stroke-opacity="1" stroke-width="1" stroke-linecap="square"
           stroke-linejoin="bevel" transform="matrix(1,0,0,1,0,0)"
           font-family="" font-size="2.5" font-weight="400" font-style="normal"
        >
            <rect x="25" y="15" width="5" height="5"/>
        </g>

        <g fill="#7e7e7e" fill-opacity="1" stroke="#989898" stroke-opacity="1" stroke-width="1" stroke-linecap="square"
           stroke-linejoin="bevel" transform="matrix(1,0,0,1,0,0)"
           font-family="" font-size="2.5" font-weight="400" font-style="normal"
        >
            <rect x="30" y="15" width="5" height="5"/>
        </g>

        <g fill="#ffff00" fill-opacity="1" stroke="#989898" stroke-opacity="1" stroke-width="1" stroke-linecap="square"
           stroke-linejoin="bevel" transform="matrix(1,0,0,1,0,0)"
           font-family="" font-size="2.5" font-weight="400" font-style="normal"
        >
            <rect x="35" y="15" width="5" height="5"/>
        </g>

        <g fill="#7e7e7e" fill-opacity="1" stroke="#989898" stroke-opacity="1" stroke-width="1" stroke-linecap="square"
           stroke-linejoin="bevel" transform="matrix(1,0,0,1,0,0)"
           font-family="" font-size="2.5" font-weight="400" font-style="normal"
        >
            <rect x="40" y="15" width="5" height="5"/>
        </g>

        <g fill="#7e7e7e" fill-opacity="1" stroke="#989898" stroke-opacity="1" stroke-width="1" stroke-linecap="square"
           stroke-linejoin="bevel" transform="matrix(1,0,0,1,0,0)"
           font-family="" font-size="2.5" font-weight="400" font-style="normal"
        >
            <rect x="45" y="15" width="5" height="5"/>
        </g>

        <g fill="#7e7e7e" fill-opacity="1" stroke="#989898" stroke-opacity="1" stroke-width="1" stroke-linecap="square"
           stroke-linejoin="bevel" transform="matrix(1,0,0,1,0,0)"
           font-family="" font-size="2.5" font-weight="400" font-style="normal"
        >
            <rect x="50" y="15" width="5" height="5"/>
        </g>

        <g fill="#7e7e7e" fill-opacity="1" stroke="#989898" stroke-opacity="1" stroke-width="1" stroke-linecap="square"
           stroke-linejoin="bevel" transform="matrix(1,0,0,1,0,0)"
           font-family="" font-size="2.5" font-weight="400" font-style="normal"
        >
            <rect x="55" y="15" width="5" height="5"/>
        </g>

        <g fill="#7e7e7e" fill-opacity="1" stroke="#989898" stroke-opacity="1" stroke-width="1" stroke-linecap="square"
           stroke-linejoin="bevel" transform="matrix(1,0,0,1,0,0)"
           font-family="" font-size="2.5" font-weight="400" font-style="normal"
        >
            <rect x="0" y="20" width="5" height="5"/>
        </g>

        <g fill="#7e7e7e" fill-opacity="1" stroke="#989898" stroke-opacity="1" stroke-width="1" stroke-linecap="square"
           stroke-linejoin="bevel" transform="matrix(1,0,0,1,0,0)"
           font-family="" font-size="2.5" font-weight="400" font-style="normal"
        >
            <rect x="5" y="20" width="5" height="5"/>
        </g>

        <g fill="#ffff00" fill-opacity="1" stroke="#989898" stroke-opacity="1" stroke-width="1" stroke-linecap="square"
           stroke-linejoin="bevel" transform="matrix(1,0,0,1,0,0)"
           font-family="" font-size="2.5" font-weight="400" font-style="normal"
        >
            <rect x="10" y="20" width="5" height="5"/>
        </g>

        <g fill="#ffff00" fill-opacity="1" stroke="#989898" stroke-opacity="1" stroke-width="1" stroke-linecap="square"
           stroke-linejoin="bevel" transform="matrix(1,0,0,1,0,0)"
           font-family="" font-size="2.5" font-weight="400" font-style="normal"
        >
            <rect x="15" y="20" width="5" height="5"/>
        </g>

        <g fill="#7e7e7e" fill-opacity="1" stroke="#989898" stroke-opacity="1" stroke-width="1" stroke-linecap="square"
           stroke-linejoin="bevel" transform="matrix(1,0,0,1,0,0)"
           font-family="" font-size="2.5" font-weight="400" font-style="normal"
        >
            <rect x="20" y="20" width="5" height="5"/>
        </g>

        <g fill="#7e7e7e" fill-opacity="1" stroke="#989898" stroke-opacity="1" stroke-width="1" stroke-linecap="square"
           stroke-linejoin="bevel" transform="matrix(1,0,0,1,0,0)"
           font-family="" font-size="2.5" font-weight="400" font-style="normal"
        >
            <rect x="25" y="20" width="5" height="5"/>
        </g>

        <g fill="#7e7e7e" fill-opacity="1" stroke="#989898" stroke-opacity="1" stroke-width="1" stroke-linecap="square"
           stroke-linejoin="bevel" transform="matrix(1,0,0,1,0,0)"
           font-family="" font-size="2.5" font-weight="400" font-style="normal"
        >
            <rect x="30" y="20" width="5" height="5"/>
        </g>

        <g fill="#7e7e7e" fill-opacity="1" stroke="#989898" stroke-opacity="1" stroke-width="1" stroke-linecap="square"
           stroke-linejoin="bevel" transform="matrix(1,0,0,1,0,0)"
           font-family="" font-size="2.5" font-weight="400" font-style="normal"
        >
            <rect x="35" y="20" width="5" height="5"/>
        </g>

        <g fill="#ffff00" fill-opacity="1" stroke="#989898" stroke-opacity="1" stroke-width="1" stroke-linecap="square"
           stroke-linejoin="bevel" transform="matrix(1,0,0,1,0,0)"
           font-family="" font-size="2.5" font-weight="400" font-style="normal"
        >
            <rect x="40" y="20" width="5" height="5"/>
        </g>

        <g fill="#ffff00" fill-opacity="1" stroke="#989898" stroke-opacity="1" stroke-width="1" stroke-linecap="square"
           stroke-linejoin="bevel" transform="matrix(1,0,0,1,0,0)"
           font-family="" font-size="2.5" font-weight="400" font-style="normal"
        >
            <rect x="45" y="20" width="5" height="5"/>
        </g>

        <g fill="#7e7e7e" fill-opacity="1" stroke="#989898" stroke-opacity="1" stroke-width="1" stroke-linecap="square"
           stroke-linejoin="bevel" transform="matrix(1,0,0,1,0,0)"
           font-family="" font-size="2.5" font-weight="400" font-style="normal"
        >
            <rect x="50" y="20" width="5" height="5"/>
        </g>

        <g fill="#7e7e7e" fill-opacity="1" stroke="#989898" stroke-opacity="1" stroke-width="1" stroke-linecap="square"
           stroke-linejoin="bevel" transform="matrix(1,0,0,1,0,0)"
           font-family="" font-size="2.5" font-weight="400" font-style="normal"
        >
            <rect x="55" y="20" width="5" height="5"/>
        </g>

        <g fill="#7e7e7e" fill-opacity="1" stroke="#989898" stroke-opacity="1" stroke-width="1" stroke-linecap="square"
           stroke-linejoin="bevel" transform="matrix(1,0,0,1,0,0)"
           font-family="" font-size="2.5" font-weight="400" font-style="normal"
        >
            <rect x="0" y="25" width="5" height="5"/>
        </g>

        <g fill="#ffff00" fill-opacity="1" stroke="#989898" stroke-opacity="1" stroke-width="1" stroke-linecap="square"
           stroke-linejoin="bevel" transform="matrix(1,0,0,1,0,0)"
           font-family="" font-size="2.5" font-weight="400" font-style="normal"
        >
            <rect x="5" y="25" width="5" height="5"/>
        </g>

        <g fill="#7e7e7e" fill-opacity="1" stroke="#989898" stroke-opacity="1" stroke-width="1" stroke-linecap="square"
           stroke-linejoin="bevel" transform="matrix(1,0,0,1,0,0)"
           font-family="" font-size="2.5" font-weight="400" font-style="normal"
        >
            <rect x="10" y="25" width="5" height="5"/>
        </g>

        <g fill="#7e7e7e" fill-opacity="1" stroke="#989898" stroke-opacity="1" stroke-width="1" stroke-linecap="square"
           stroke-linejoin="bevel" transform="matrix(1,0,0,1,0,0)"
           font-family="" font-size="2.5" font-weight="400" font-style="normal"
        >
            <rect x="15" y="25" width="5" height="5"/>
        </g>

        <g fill="#7e7e7e" fill-opacity="1" stroke="#989898" stroke-opacity="1" stroke-width="1" stroke-linecap="square"
           stroke-linejoin="bevel" transform="matrix(1,0,0,1,0,0)"
           font-family="" font-size="2.5" font-weight="400" font-style="normal"
        >
            <rect x="20" y="25" width="5" height="5"/>
        </g>

        <g fill="#7e7e7e" fill-opacity="1" stroke="#989898" stroke-opacity="1" stroke-width="1" stroke-linecap="square"
           stroke-linejoin="bevel" transform="matrix(1,0,0,1,0,0)"
           font-family="" font-size="2.5" font-weight="400" font-style="normal"
        >
            <rect x="25" y="25" width="5" height="5"/>
        </g>

        <g fill="#7e7e7e" fill-opacity="1" stroke="#989898" stroke-opacity="1" stroke-width="1" stroke-linecap="square"
           stroke-linejoin="bevel" transform="matrix(1,0,0,1,0,0)"
           font-family="" font-size="2.5" font-weight="400" font-style="normal"
        >
            <rect x="30" y="25" width="5" height="5"/>
        </g>

        <g fill="#7e7e7e" fill-opacity="1" stroke="#989898" stroke-opacity="1" stroke-width="1" stroke-linecap="square"
           stroke-linejoin="bevel" transform="matrix(1,0,0,1,0,0)"
           font-family="" font-size="2.5" font-weight="400" font-style="normal"
        >
            <rect x="35" y="25" width="5" height="5"/>
        </g>

        <g fill="#7e7e7e" fill-opacity="1" stroke="#989898" stroke-opacity="1" stroke-width="1" stroke-linecap="square"
           stroke-linejoin="bevel" transform="matrix(1,0,0,1,0,0)"
           font-family="" font-size="2.5" font-weight="400" font-style="normal"
        >
            <rect x="40" y="25" width="5" height="5"/>
        </g>

        <g fill="#7e7e7e" fill-opacity="1" stroke="#989898" stroke-opacity="1" stroke-width="1" stroke-linecap="square"
           stroke-linejoin="bevel" transform="matrix(1,0,0,1,0,0)"
           font-family="" font-size="2.5" font-weight="400" font-style="normal"
        >
            <rect x="45" y="25" width="5" height="5"/>
        </g>

        <g fill="#ffff00" fill-opacity="1" stroke="#989898" stroke-opacity="1" stroke-width="1" stroke-linecap="square"
           stroke-linejoin="bevel" transform="matrix(1,0,0,1,0,0)"
           font-family="" font-size="2.5" font-weight="400" font-style="normal"
        >
            <rect x="50" y="25" width="5" height="5"/>
        </g>

        <g fill="#7e7e7e" fill-opacity="1" stroke="#989898" stroke-opacity="1" stroke-width="1" stroke-linecap="square"
           stroke-linejoin="bevel" transform="matrix(1,0,0,1,0,0)"
           font-family="" font-size="2.5" font-weight="400" font-style="normal"
        >
            <rect x="55" y="25" width="5" height="5"/>
        </g>

        <g fill="#7e7e7e" fill-opacity="1" stroke="#989898" stroke-opacity="1" stroke-width="1" stroke-linecap="square"
           stroke-linejoin="bevel" transform="matrix(1,0,0,1,0,0)"
           font-family="" font-size="2.5" font-weight="400" font-style="normal"
        >
            <rect x="0" y="30" width="5" height="5"/>
        </g>

        <g fill="#ffff00" fill-opacity="1" stroke="#989898" stroke-opacity="1" stroke-width="1" stroke-linecap="square"
           stroke-linejoin="bevel" transform="matrix(1,0,0,1,0,0)"
           font-family="" font-size="2.5" font-weight="400" font-style="normal"
        >
            <rect x="5" y="30" width="5" height="5"/>
        </g>

        <g fill="#7e7e7e" fill-opacity="1" stroke="#989898" stroke-opacity="1" stroke-width="1" stroke-linecap="square"
           stroke-linejoin="bevel" transform="matrix(1,0,0,1,0,0)"
           font-family="" font-size="2.5" font-weight="400" font-style="normal"
        >
            <rect x="10" y="30" width="5" height="5"/>
        </g>

        <g fill="#7e7e7e" fill-opacity="1" stroke="#989898" stroke-opacity="1" stroke-width="1" stroke-linecap="square"
           stroke-linejoin="bevel" transform="matrix(1,0,0,1,0,0)"
           font-family="" font-size="2.5" font-weight="400" font-style="normal"
        >
            <rect x="15" y="30" width="5" height="5"/>
        </g>

        <g fill="#7e7e7e" fill-opacity="1" stroke="#989898" stroke-opacity="1" stroke-width="1" stroke-linecap="square"
           stroke-linejoin="bevel" transform="matrix(1,0,0,1,0,0)"
           font-family="" font-size="2.5" font-weight="400" font-style="normal"
        >
            <rect x="20" y="30" width="5" height="5"/>
        </g>

        <g fill="#7e7e7e" fill-opacity="1" stroke="#989898" stroke-opacity="1" stroke-width="1" stroke-linecap="square"
           stroke-linejoin="bevel" transform="matrix(1,0,0,1,0,0)"
           font-family="" font-size="2.5" font-weight="400" font-style="normal"
        >
            <rect x="25" y="30" width="5" height="5"/>
        </g>

        <g fill="#7e7e7e" fill-opacity="1" stroke="#989898" stroke-opacity="1" stroke-width="1" stroke-linecap="square"
           stroke-linejoin="bevel" transform="matrix(1,0,0,1,0,0)"
           font-family="" font-size="2.5" font-weight="400" font-style="normal"
        >
            <rect x="30" y="30" width="5" height="5"/>
        </g>

        <g fill="#7e7e7e" fill-opacity="1" stroke="#989898" stroke-opacity="1" stroke-width="1" stroke-linecap="square"
           stroke-linejoin="bevel" transform="matrix(1,0,0,1,0,0)"
           font-family="" font-size="2.5" font-weight="400" font-style="normal"
        >
            <rect x="35" y="30" width="5" height="5"/>
        </g>

        <g fill="#7e7e7e" fill-opacity="1" stroke="#989898" stroke-opacity="1" stroke-width="1" stroke-linecap="square"
           stroke-linejoin="bevel" transform="matrix(1,0,0,1,0,0)"
           font-family="" font-size="2.5" font-weight="400" font-style="normal"
        >
            <rect x="40" y="30" width="5" height="5"/>
        </g>

        <g fill="#7e7e7e" fill-opacity="1" stroke="#989898" stroke-opacity="1" stroke-width="1" stroke-linecap="square"
           stroke-linejoin="bevel" transform="matrix(1,0,0,1,0,0)"
           font-family="" font-size="2.5" font-weight="400" font-style="normal"
        >
            <rect x="45" y="30" width="5" height="5"/>
        </g>

        <g fill="#ffff00" fill-opacity="1" stroke="#989898" stroke-opacity="1" stroke-width="1" stroke-linecap="square"
           stroke-linejoin="bevel" transform="matrix(1,0,0,1,0,0)"
           font-family="" font-size="2.5" font-weight="400" font-style="normal"
        >
            <rect x="50" y="30" width="5" height="5"/>
        </g>

        <g fill="#7e7e7e" fill-opacity="1" stroke="#989898" stroke-opacity="1" stroke-width="1" stroke-linecap="square"
           stroke-linejoin="bevel" transform="matrix(1,0,0,1,0,0)"
           font-family="" font-size="2.5" font-weight="400" font-style="normal"
        >
            <rect x="55" y="30" width="5" height="5"/>
        </g>

        <g fill="#7e7e7e" fill-opacity="1" stroke="#989898" stroke-opacity="1" stroke-width="1" stroke-linecap="square"
           stroke-linejoin="bevel" transform="matrix(1,0,0,1,0,0)"
           font-family="" font-size="2.5" font-weight="400" font-style="normal"
        >
            <rect x="0" y="35" width="5" height="5"/>
        </g>

        <g fill="#7e7e7e" fill-opacity="1" stroke="#989898" stroke-opacity="1" stroke-width="1" stroke-linecap="square"
           stroke-linejoin="bevel" transform="matrix(1,0,0,1,0,0)"
           font-family="" font-size="2.5" font-weight="400" font-style="normal"
        >
            <rect x="5" y="35" width="5" height="5"/>
        </g>

        <g fill="#ffff00" fill-opacity="1" stroke="#989898" stroke-opacity="1" stroke-width="1" stroke-linecap="square"
           stroke-linejoin="bevel" transform="matrix(1,0,0,1,0,0)"
           font-family="" font-size="2.5" font-weight="400" font-style="normal"
        >
            <rect x="10" y="35" width="5" height="5"/>
        </g>

        <g fill="#ffff00" fill-opacity="1" stroke="#989898" stroke-opacity="1" stroke-width="1" stroke-linecap="square"
           stroke-linejoin="bevel" transform="matrix(1,0,0,1,0,0)"
           font-family="" font-size="2.5" font-weight="400" font-style="normal"
        >
            <rect x="15" y="35" width="5" height="5"/>
        </g>

        <g fill="#7e7e7e" fill-opacity="1" stroke="#989898" stroke-opacity="1" stroke-width="1" stroke-linecap="square"
           stroke-linejoin="bevel" transform="matrix(1,0,0,1,0,0)"
           font-family="" font-size="2.5" font-weight="400" font-style="normal"
        >
            <rect x="20" y="35" width="5" height="5"/>
        </g>

        <g fill="#7e7e7e" fill-opacity="1" stroke="#989898" stroke-opacity="1" stroke-width="1" stroke-linecap="square"
           stroke-linejoin="bevel" transform="matrix(1,0,0,1,0,0)"
           font-family="" font-size="2.5" font-weight="400" font-style="normal"
        >
            <rect x="25" y="35" width="5" height="5"/>
        </g>

        <g fill="#7e7e7e" fill-opacity="1" stroke="#989898" stroke-opacity="1" stroke-width="1" stroke-linecap="square"
           stroke-linejoin="bevel" transform="matrix(1,0,0,1,0,0)"
           font-family="" font-size="2.5" font-weight="400" font-style="normal"
        >
            <rect x="30" y="35" width="5" height="5"/>
        </g>

        <g fill="#7e7e7e" fill-opacity="1" stroke="#989898" stroke-opacity="1" stroke-width="1" stroke-linecap="square"
           stroke-linejoin="bevel" transform="matrix(1,0,0,1,0,0)"
           font-family="" font-size="2.5" font-weight="400" font-style="normal"
        >
            <rect x="35" y="35" width="5" height="5"/>
        </g>

        <g fill="#ffff00" fill-opacity="1" stroke="#989898" stroke-opacity="1" stroke-width="1" stroke-linecap="square"
           stroke-linejoin="bevel" transform="matrix(1,0,0,1,0,0)"
           font-family="" font-size="2.5" font-weight="400" font-style="normal"
        >
            <rect x="40" y="35" width="5" height="5"/>
        </g>

        <g fill="#ffff00" fill-opacity="1" stroke="#989898" stroke-opacity="1" stroke-width="1" stroke-linecap="square"
           stroke-linejoin="bevel" transform="matrix(1,0,0,1,0,0)"
           font-family="" font-size="2.5" font-weight="400" font-style="normal"
        >
            <rect x="45" y="35" width="5" height="5"/>
        </g>

        <g fill="#7e7e7e" fill-opacity="1" stroke="#989898" stroke-opacity="1" stroke-width="1" stroke-linecap="square"
           stroke-linejoin="bevel" transform="matrix(1,0,0,1,0,0)"
           font-family="" font-size="2.5" font-weight="400" font-style="normal"
        >
            <rect x="50" y="35" width="5" height="5"/>
        </g>

        <g fill="#7e7e7e" fill-opacity="1" stroke="#989898" stroke-opacity="1" stroke-width="1" stroke-linecap="square"
           stroke-linejoin="bevel" transform="matrix(1,0,0,1,0,0)"
           font-family="" font-size="2.5" font-weight="400" font-style="normal"
        >
            <rect x="55" y="35" width="5" height="5"/>
        </g>

        <g fill="#7e7e7e" fill-opacity="1" stroke="#989898" stroke-opacity="1" stroke-width="1" stroke-linecap="square"
           stroke-linejoin="bevel" transform="matrix(1,0,0,1,0,0)"
           font-family="" font-size="2.5" font-weight="400" font-style="normal"
        >
            <rect x="0" y="40" width="5" height="5"/>
        </g>

        <g fill="#7e7e7e" fill-opacity="1" stroke="#989898" stroke-opacity="1" stroke-width="1" stroke-linecap="square"
           stroke-linejoin="bevel" transform="matrix(1,0,0,1,0,0)"
           font-family="" font-size="2.5" font-weight="400" font-style="normal"
        >
            <rect x="5" y="40" width="5" height="5"/>
        </g>

        <g fill="#7e7e7e" fill-opacity="1" stroke="#989898" stroke-opacity="1" stroke-width="1" stroke-linecap="square"
           stroke-linejoin="bevel" transform="matrix(1,0,0,1,0,0)"
           font-family="" font-size="2.5" font-weight="400" font-style="normal"
        >
            <rect x="10" y="40" width="5" height="5"/>
        </g>

        <g fill="#7e7e7e" fill-opacity="1" stroke="#989898" stroke-opacity="1" stroke-width="1" stroke-linecap="square"
           stroke-linejoin="bevel" transform="matrix(1,0,0,1,0,0)"
           font-family="" font-size="2.5" font-weight="400" font-style="normal"
        >
            <rect x="15" y="40" width="5" height="5"/>
        </g>

        <g fill="#ffff00" fill-opacity="1" stroke="#989898" stroke-opacity="1" stroke-width="1" stroke-linecap="square"
           stroke-linejoin="bevel" transform="matrix(1,0,0,1,0,0)"
           font-family="" font-size="2.5" font-weight="400" font-style="normal"
        >
            <rect x="20" y="40" width="5" height="5"/>
        </g>

        <g fill="#7e7e7e" fill-opacity="1" stroke="#989898" stroke-opacity="1" stroke-width="1" stroke-linecap="square"
           stroke-linejoin="bevel" transform="matrix(1,0,0,1,0,0)"
           font-family="" font-size="2.5" font-weight="400" font-style="normal"
        >
            <rect x="25" y="40" width="5" height="5"/>
        </g>

        <g fill="#7e7e7e" fill-opacity="1" stroke="#989898" stroke-opacity="1" stroke-width="1" stroke-linecap="square"
           stroke-linejoin="bevel" transform="matrix(1,0,0,1,0,0)"
           font-family="" font-size="2.5" font-weight="400" font-style="normal"
        >
            <rect x="30" y="40" width="5" height="5"/>
        </g>

        <g fill="#ffff00" fill-opacity="1" stroke="#989898" stroke-opacity="1" stroke-width="1" stroke-linecap="square"
           stroke-linejoin="bevel" transform="matrix(1,0,0,1,0,0)"
           font-family="" font-size="2.5" font-weight="400" font-style="normal"
        >
            <rect x="35" y="40" width="5" height="5"/>
        </g>

        <g fill="#7e7e7e" fill-opacity="1" stroke="#989898" stroke-opacity="1" stroke-width="1" stroke-linecap="square"
           stroke-linejoin="bevel" transform="matrix(1,0,0,1,0,0)"
           font-family="" font-size="2.5" font-weight="400" font-style="normal"
        >
            <rect x="40" y="40" width="5" height="5"/>
        </g>

        <g fill="#7e7e7e" fill-opacity="1" stroke="#989898" stroke-opacity="1" stroke-width="1" stroke-linecap="square"
           stroke-linejoin="bevel" transform="matrix(1,0,0,1,0,0)"
           font-family="" font-size="2.5" font-weight="400" font-style="normal"
        >
            <rect x="45" y="40" width="5" height="5"/>
        </g>

        <g fill="#7e7e7e" fill-opacity="1" stroke="#989898" stroke-opacity="1" stroke-width="1" stroke-linecap="square"
           stroke-linejoin="bevel" transform="matrix(1,0,0,1,0,0)"
           font-family="" font-size="2.5" font-weight="400" font-style="normal"
        >
            <rect x="50" y="40" width="5" height="5"/>
        </g>

        <g fill="#7e7e7e" fill-opacity="1" stroke="#989898" stroke-opacity="1" stroke-width="1" stroke-linecap="square"
           stroke-linejoin="bevel" transform="matrix(1,0,0,1,0,0)"
           font-family="" font-size="2.5" font-weight="400" font-style="normal"
        >
            <rect x="55" y="40" width="5" height="5"/>
        </g>

        <g fill="#7e7e7e" fill-opacity="1" stroke="#989898" stroke-opacity="1" stroke-width="1" stroke-linecap="square"
           stroke-linejoin="bevel" transform="matrix(1,0,0,1,0,0)"
           font-family="" font-size="2.5" font-weight="400" font-style="normal"
        >
            <rect x="0" y="45" width="5" height="5"/>
        </g>

        <g fill="#7e7e7e" fill-opacity="1" stroke="#989898" stroke-opacity="1" stroke-width="1" stroke-linecap="square"
           stroke-linejoin="bevel" transform="matrix(1,0,0,1,0,0)"
           font-family="" font-size="2.5" font-weight="400" font-style="normal"
        >
            <rect x="5" y="45" width="5" height="5"/>
        </g>

        <g fill="#7e7e7e" fill-opacity="1" stroke="#989898" stroke-opacity="1" stroke-width="1" stroke-linecap="square"
           stroke-linejoin="bevel" transform="matrix(1,0,0,1,0,0)"
           font-family="" font-size="2.5" font-weight="400" font-style="normal"
        >
            <rect x="10" y="45" width="5" height="5"/>
        </g>

        <g fill="#7e7e7e" fill-opacity="1" stroke="#989898" stroke-opacity="1" stroke-width="1" stroke-linecap="square"
           stroke-linejoin="bevel" transform="matrix(1,0,0,1,0,0)"
           font-family="" font-size="2.5" font-weight="400" font-style="normal"
        >
            <rect x="15" y="45" width="5" height="5"/>
        </g>

        <g fill="#ffff00" fill-opacity="1" stroke="#989898" stroke-opacity="1" stroke-width="1" stroke-linecap="square"
           stroke-linejoin="bevel" transform="matrix(1,0,0,1,0,0)"
           font-family="" font-size="2.5" font-weight="400" font-style="normal"
        >
            <rect x="20" y="45" width="5" height="5"/>
        </g>

        <g fill="#7e7e7e" fill-opacity="1" stroke="#989898" stroke-opacity="1" stroke-width="1" stroke-linecap="square"
           stroke-linejoin="bevel" transform="matrix(1,0,0,1,0,0)"
           font-family="" font-size="2.5" font-weight="400" font-style="normal"
        >
            <rect x="25" y="45" width="5" height="5"/>
        </g>

        <g fill="#7e7e7e" fill-opacity="1" stroke="#989898" stroke-opacity="1" stroke-width="1" stroke-linecap="square"
           stroke-linejoin="bevel" transform="matrix(1,0,0,1,0,0)"
           font-family="" font-size="2.5" font-weight="400" font-style="normal"
        >
            <rect x="30" y="45" width="5" height="5"/>
        </g>

        <g fill="#ffff00" fill-opacity="1" stroke="#989898" stroke-opacity="1" stroke-width="1" stroke-linecap="square"
           stroke-linejoin="bevel" transform="matrix(1,0,0,1,0,0)"
           font-family="" font-size="2.5" font-weight="400" font-style="normal"
        >
            <rect x="35" y="45" width="5" height="5"/>
        </g>

        <g fill="#7e7e7e" fill-opacity="1" stroke="#989898" stroke-opacity="1" stroke-width="1" stroke-linecap="square"
           stroke-linejoin="bevel" transform="matrix(1,0,0,1,0,0)"
           font-family="" font-size="2.5" font-weight="400" font-style="normal"
        >
            <rect x="40" y="45" width="5" height="5"/>
        </g>

        <g fill="#7e7e7e" fill-opacity="1" stroke="#989898" stroke-opacity="1" stroke-width="1" stroke-linecap="square"
           stroke-linejoin="bevel" transform="matrix(1,0,0,1,0,0)"
           font-family="" font-size="2.5" font-weight="400" font-style="normal"
        >
            <rect x="45" y="45" width="5" height="5"/>
        </g>

        <g fill="#7e7e7e" fill-opacity="1" stroke="#989898" stroke-opacity="1" stroke-width="1" stroke-linecap="square"
           stroke-linejoin="bevel" transform="matrix(1,0,0,1,0,0)"
           font-family="" font-size="2.5" font-weight="400" font-style="normal"
        >
            <rect x="50" y="45" width="5" height="5"/>
        </g>

        <g fill="#7e7e7e" fill-opacity="1" stroke="#989898" stroke-opacity="1" stroke-width="1" stroke-linecap="square"
           stroke-linejoin="bevel" transform="matrix(1,0,0,1,0,0)"
           font-family="" font-size="2.5" font-weight="400" font-style="normal"
        >
            <rect x="55" y="45" width="5" height="5"/>
        </g>

        <g fill="#7e7e7e" fill-opacity="1" stroke="#989898" stroke-opacity="1" stroke-width="1" stroke-linecap="square"
           stroke-linejoin="bevel" transform="matrix(1,0,0,1,0,0)"
           font-family="" font-size="2.5" font-weight="400" font-style="normal"
        >
            <rect x="0" y="50" width="5" height="5"/>
        </g>

        <g fill="#7e7e7e" fill-opacity="1" stroke="#989898" stroke-opacity="1" stroke-width="1" stroke-linecap="square"
           stroke-linejoin="bevel" transform="matrix(1,0,0,1,0,0)"
           font-family="" font-size="2.5" font-weight="400" font-style="normal"
        >
            <rect x="5" y="50" width="5" height="5"/>
        </g>

        <g fill="#7e7e7e" fill-opacity="1" stroke="#989898" stroke-opacity="1" stroke-width="1" stroke-linecap="square"
           stroke-linejoin="bevel" transform="matrix(1,0,0,1,0,0)"
           font-family="" font-size="2.5" font-weight="400" font-style="normal"
        >
            <rect x="10" y="50" width="5" height="5"/>
        </g>

        <g fill="#7e7e7e" fill-opacity="1" stroke="#989898" stroke-opacity="1" stroke-width="1" stroke-linecap="square"
           stroke-linejoin="bevel" transform="matrix(1,0,0,1,0,0)"
           font-family="" font-size="2.5" font-weight="400" font-style="normal"
        >
            <rect x="15" y="50" width="5" height="5"/>
        </g>

        <g fill="#7e7e7e" fill-opacity="1" stroke="#989898" stroke-opacity="1" stroke-width="1" stroke-linecap="square"
           stroke-linejoin="bevel" transform="matrix(1,0,0,1,0,0)"
           font-family="" font-size="2.5" font-weight="400" font-style="normal"
        >
            <rect x="20" y="50" width="5" height="5"/>
        </g>

        <g fill="#ffff00" fill-opacity="1" stroke="#989898" stroke-opacity="1" stroke-width="1" stroke-linecap="square"
           stroke-linejoin="bevel" transform="matrix(1,0,0,1,0,0)"
           font-family="" font-size="2.5" font-weight="400" font-style="normal"
        >
            <rect x="25" y="50" width="5" height="5"/>
        </g>

        <g fill="#ffff00" fill-opacity="1" stroke="#989898" stroke-opacity="1" stroke-width="1" stroke-linecap="square"
           stroke-linejoin="bevel" transform="matrix(1,0,0,1,0,0)"
           font-family="" font-size="2.5" font-weight="400" font-style="normal"
        >
            <rect x="30" y="50" width="5" height="5"/>
        </g>

        <g fill="#7e7e7e" fill-opacity="1" stroke="#989898" stroke-opacity="1" stroke-width="1" stroke-linecap="square"
           stroke-linejoin="bevel" transform="matrix(1,0,0,1,0,0)"
           font-family="" font-size="2.5" font-weight="400" font-style="normal"
        >
            <rect x="35" y="50" width="5" height="5"/>
        </g>

        <g fill="#7e7e7e" fill-opacity="1" stroke="#989898" stroke-opacity="1" stroke-width="1" stroke-linecap="square"
           stroke-linejoin="bevel" transform="matrix(1,0,0,1,0,0)"
           font-family="" font-size="2.5" font-weight="400" font-style="normal"
        >
            <rect x="40" y="50" width="5" height="5"/>
        </g>

        <g fill="#7e7e7e" fill-opacity="1" stroke="#989898" stroke-opacity="1" stroke-width="1" stroke-linecap="square"
           stroke-linejoin="bevel" transform="matrix(1,0,0,1,0,0)"
           font-family="" font-size="2.5" font-weight="400" font-style="normal"
        >
            <rect x="45" y="50" width="5" height="5"/>
        </g>

        <g fill="#7e7e7e" fill-opacity="1" stroke="#989898" stroke-opacity="1" stroke-width="1" stroke-linecap="square"
           stroke-linejoin="bevel" transform="matrix(1,0,0,1,0,0)"
           font-family="" font-size="2.5" font-weight="400" font-style="normal"
        >
            <rect x="50" y="50" width="5" height="5"/>
        </g>

        <g fill="#7e7e7e" fill-opacity="1" stroke="#989898" stroke-opacity="1" stroke-width="1" stroke-linecap="square"
           stroke-linejoin="bevel" transform="matrix(1,0,0,1,0,0)"
           font-family="" font-size="2.5" font-weight="400" font-style="normal"
        >
            <rect x="55" y="50" width="5" height="5"/>
        </g>
    </g>
</svg>
