<?xml version="1.0" encoding="UTF-8" standalone="no"?>
<svg xmlns:xlink="http://www.w3.org/1999/xlink" width="61.7361mm"
     height="5.29167mm"
     viewBox="0 0 175 15" xmlns="http://www.w3.org/2000/svg" version="1.2" baseProfile="tiny">
    <title>Qt SVG Document</title>
    <desc>Generated with Qt</desc>
    <defs>
    </defs>
    <g fill="none" stroke="black" stroke-width="1" fill-rule="evenodd" stroke-linecap="square" stroke-linejoin="bevel">

        <g fill="#7e7e7e" fill-opacity="1" stroke="#989898" stroke-opacity="1" stroke-width="1" stroke-linecap="square"
           stroke-linejoin="bevel" transform="matrix(1,0,0,1,0,0)"
           font-family="" font-size="2.5" font-weight="400" font-style="normal"
        >
            <rect x="0" y="0" width="5" height="5"/>
        </g>

        <g fill="#7e7e7e" fill-opacity="1" stroke="#989898" stroke-opacity="1" stroke-width="1" stroke-linecap="square"
           stroke-linejoin="bevel" transform="matrix(1,0,0,1,0,0)"
           font-family="" font-size="2.5" font-weight="400" font-style="normal"
        >
            <rect x="5" y="0" width="5" height="5"/>
        </g>

        <g fill="#7e7e7e" fill-opacity="1" stroke="#989898" stroke-opacity="1" stroke-width="1" stroke-linecap="square"
           stroke-linejoin="bevel" transform="matrix(1,0,0,1,0,0)"
           font-family="" font-size="2.5" font-weight="400" font-style="normal"
        >
            <rect x="10" y="0" width="5" height="5"/>
        </g>

        <g fill="#7e7e7e" fill-opacity="1" stroke="#989898" stroke-opacity="1" stroke-width="1" stroke-linecap="square"
           stroke-linejoin="bevel" transform="matrix(1,0,0,1,0,0)"
           font-family="" font-size="2.5" font-weight="400" font-style="normal"
        >
            <rect x="15" y="0" width="5" height="5"/>
        </g>

        <g fill="#7e7e7e" fill-opacity="1" stroke="#989898" stroke-opacity="1" stroke-width="1" stroke-linecap="square"
           stroke-linejoin="bevel" transform="matrix(1,0,0,1,0,0)"
           font-family="" font-size="2.5" font-weight="400" font-style="normal"
        >
            <rect x="20" y="0" width="5" height="5"/>
        </g>

        <g fill="#7e7e7e" fill-opacity="1" stroke="#989898" stroke-opacity="1" stroke-width="1" stroke-linecap="square"
           stroke-linejoin="bevel" transform="matrix(1,0,0,1,0,0)"
           font-family="" font-size="2.5" font-weight="400" font-style="normal"
        >
            <rect x="25" y="0" width="5" height="5"/>
        </g>

        <g fill="#7e7e7e" fill-opacity="1" stroke="#989898" stroke-opacity="1" stroke-width="1" stroke-linecap="square"
           stroke-linejoin="bevel" transform="matrix(1,0,0,1,0,0)"
           font-family="" font-size="2.5" font-weight="400" font-style="normal"
        >
            <rect x="30" y="0" width="5" height="5"/>
        </g>

        <g fill="#7e7e7e" fill-opacity="1" stroke="#989898" stroke-opacity="1" stroke-width="1" stroke-linecap="square"
           stroke-linejoin="bevel" transform="matrix(1,0,0,1,0,0)"
           font-family="" font-size="2.5" font-weight="400" font-style="normal"
        >
            <rect x="35" y="0" width="5" height="5"/>
        </g>

        <g fill="#7e7e7e" fill-opacity="1" stroke="#989898" stroke-opacity="1" stroke-width="1" stroke-linecap="square"
           stroke-linejoin="bevel" transform="matrix(1,0,0,1,0,0)"
           font-family="" font-size="2.5" font-weight="400" font-style="normal"
        >
            <rect x="40" y="0" width="5" height="5"/>
        </g>

        <g fill="#7e7e7e" fill-opacity="1" stroke="#989898" stroke-opacity="1" stroke-width="1" stroke-linecap="square"
           stroke-linejoin="bevel" transform="matrix(1,0,0,1,0,0)"
           font-family="" font-size="2.5" font-weight="400" font-style="normal"
        >
            <rect x="45" y="0" width="5" height="5"/>
        </g>

        <g fill="#7e7e7e" fill-opacity="1" stroke="#989898" stroke-opacity="1" stroke-width="1" stroke-linecap="square"
           stroke-linejoin="bevel" transform="matrix(1,0,0,1,0,0)"
           font-family="" font-size="2.5" font-weight="400" font-style="normal"
        >
            <rect x="50" y="0" width="5" height="5"/>
        </g>

        <g fill="#7e7e7e" fill-opacity="1" stroke="#989898" stroke-opacity="1" stroke-width="1" stroke-linecap="square"
           stroke-linejoin="bevel" transform="matrix(1,0,0,1,0,0)"
           font-family="" font-size="2.5" font-weight="400" font-style="normal"
        >
            <rect x="55" y="0" width="5" height="5"/>
        </g>

        <g fill="#7e7e7e" fill-opacity="1" stroke="#989898" stroke-opacity="1" stroke-width="1" stroke-linecap="square"
           stroke-linejoin="bevel" transform="matrix(1,0,0,1,0,0)"
           font-family="" font-size="2.5" font-weight="400" font-style="normal"
        >
            <rect x="60" y="0" width="5" height="5"/>
        </g>

        <g fill="#7e7e7e" fill-opacity="1" stroke="#989898" stroke-opacity="1" stroke-width="1" stroke-linecap="square"
           stroke-linejoin="bevel" transform="matrix(1,0,0,1,0,0)"
           font-family="" font-size="2.5" font-weight="400" font-style="normal"
        >
            <rect x="65" y="0" width="5" height="5"/>
        </g>

        <g fill="#7e7e7e" fill-opacity="1" stroke="#989898" stroke-opacity="1" stroke-width="1" stroke-linecap="square"
           stroke-linejoin="bevel" transform="matrix(1,0,0,1,0,0)"
           font-family="" font-size="2.5" font-weight="400" font-style="normal"
        >
            <rect x="70" y="0" width="5" height="5"/>
        </g>

        <g fill="#7e7e7e" fill-opacity="1" stroke="#989898" stroke-opacity="1" stroke-width="1" stroke-linecap="square"
           stroke-linejoin="bevel" transform="matrix(1,0,0,1,0,0)"
           font-family="" font-size="2.5" font-weight="400" font-style="normal"
        >
            <rect x="75" y="0" width="5" height="5"/>
        </g>

        <g fill="#7e7e7e" fill-opacity="1" stroke="#989898" stroke-opacity="1" stroke-width="1" stroke-linecap="square"
           stroke-linejoin="bevel" transform="matrix(1,0,0,1,0,0)"
           font-family="" font-size="2.5" font-weight="400" font-style="normal"
        >
            <rect x="80" y="0" width="5" height="5"/>
        </g>

        <g fill="#7e7e7e" fill-opacity="1" stroke="#989898" stroke-opacity="1" stroke-width="1" stroke-linecap="square"
           stroke-linejoin="bevel" transform="matrix(1,0,0,1,0,0)"
           font-family="" font-size="2.5" font-weight="400" font-style="normal"
        >
            <rect x="85" y="0" width="5" height="5"/>
        </g>

        <g fill="#7e7e7e" fill-opacity="1" stroke="#989898" stroke-opacity="1" stroke-width="1" stroke-linecap="square"
           stroke-linejoin="bevel" transform="matrix(1,0,0,1,0,0)"
           font-family="" font-size="2.5" font-weight="400" font-style="normal"
        >
            <rect x="90" y="0" width="5" height="5"/>
        </g>

        <g fill="#7e7e7e" fill-opacity="1" stroke="#989898" stroke-opacity="1" stroke-width="1" stroke-linecap="square"
           stroke-linejoin="bevel" transform="matrix(1,0,0,1,0,0)"
           font-family="" font-size="2.5" font-weight="400" font-style="normal"
        >
            <rect x="95" y="0" width="5" height="5"/>
        </g>

        <g fill="#7e7e7e" fill-opacity="1" stroke="#989898" stroke-opacity="1" stroke-width="1" stroke-linecap="square"
           stroke-linejoin="bevel" transform="matrix(1,0,0,1,0,0)"
           font-family="" font-size="2.5" font-weight="400" font-style="normal"
        >
            <rect x="100" y="0" width="5" height="5"/>
        </g>

        <g fill="#7e7e7e" fill-opacity="1" stroke="#989898" stroke-opacity="1" stroke-width="1" stroke-linecap="square"
           stroke-linejoin="bevel" transform="matrix(1,0,0,1,0,0)"
           font-family="" font-size="2.5" font-weight="400" font-style="normal"
        >
            <rect x="105" y="0" width="5" height="5"/>
        </g>

        <g fill="#7e7e7e" fill-opacity="1" stroke="#989898" stroke-opacity="1" stroke-width="1" stroke-linecap="square"
           stroke-linejoin="bevel" transform="matrix(1,0,0,1,0,0)"
           font-family="" font-size="2.5" font-weight="400" font-style="normal"
        >
            <rect x="110" y="0" width="5" height="5"/>
        </g>

        <g fill="#7e7e7e" fill-opacity="1" stroke="#989898" stroke-opacity="1" stroke-width="1" stroke-linecap="square"
           stroke-linejoin="bevel" transform="matrix(1,0,0,1,0,0)"
           font-family="" font-size="2.5" font-weight="400" font-style="normal"
        >
            <rect x="115" y="0" width="5" height="5"/>
        </g>

        <g fill="#7e7e7e" fill-opacity="1" stroke="#989898" stroke-opacity="1" stroke-width="1" stroke-linecap="square"
           stroke-linejoin="bevel" transform="matrix(1,0,0,1,0,0)"
           font-family="" font-size="2.5" font-weight="400" font-style="normal"
        >
            <rect x="120" y="0" width="5" height="5"/>
        </g>

        <g fill="#7e7e7e" fill-opacity="1" stroke="#989898" stroke-opacity="1" stroke-width="1" stroke-linecap="square"
           stroke-linejoin="bevel" transform="matrix(1,0,0,1,0,0)"
           font-family="" font-size="2.5" font-weight="400" font-style="normal"
        >
            <rect x="125" y="0" width="5" height="5"/>
        </g>

        <g fill="#7e7e7e" fill-opacity="1" stroke="#989898" stroke-opacity="1" stroke-width="1" stroke-linecap="square"
           stroke-linejoin="bevel" transform="matrix(1,0,0,1,0,0)"
           font-family="" font-size="2.5" font-weight="400" font-style="normal"
        >
            <rect x="130" y="0" width="5" height="5"/>
        </g>

        <g fill="#7e7e7e" fill-opacity="1" stroke="#989898" stroke-opacity="1" stroke-width="1" stroke-linecap="square"
           stroke-linejoin="bevel" transform="matrix(1,0,0,1,0,0)"
           font-family="" font-size="2.5" font-weight="400" font-style="normal"
        >
            <rect x="135" y="0" width="5" height="5"/>
        </g>

        <g fill="#7e7e7e" fill-opacity="1" stroke="#989898" stroke-opacity="1" stroke-width="1" stroke-linecap="square"
           stroke-linejoin="bevel" transform="matrix(1,0,0,1,0,0)"
           font-family="" font-size="2.5" font-weight="400" font-style="normal"
        >
            <rect x="140" y="0" width="5" height="5"/>
        </g>

        <g fill="#7e7e7e" fill-opacity="1" stroke="#989898" stroke-opacity="1" stroke-width="1" stroke-linecap="square"
           stroke-linejoin="bevel" transform="matrix(1,0,0,1,0,0)"
           font-family="" font-size="2.5" font-weight="400" font-style="normal"
        >
            <rect x="145" y="0" width="5" height="5"/>
        </g>

        <g fill="#7e7e7e" fill-opacity="1" stroke="#989898" stroke-opacity="1" stroke-width="1" stroke-linecap="square"
           stroke-linejoin="bevel" transform="matrix(1,0,0,1,0,0)"
           font-family="" font-size="2.5" font-weight="400" font-style="normal"
        >
            <rect x="150" y="0" width="5" height="5"/>
        </g>

        <g fill="#7e7e7e" fill-opacity="1" stroke="#989898" stroke-opacity="1" stroke-width="1" stroke-linecap="square"
           stroke-linejoin="bevel" transform="matrix(1,0,0,1,0,0)"
           font-family="" font-size="2.5" font-weight="400" font-style="normal"
        >
            <rect x="155" y="0" width="5" height="5"/>
        </g>

        <g fill="#7e7e7e" fill-opacity="1" stroke="#989898" stroke-opacity="1" stroke-width="1" stroke-linecap="square"
           stroke-linejoin="bevel" transform="matrix(1,0,0,1,0,0)"
           font-family="" font-size="2.5" font-weight="400" font-style="normal"
        >
            <rect x="160" y="0" width="5" height="5"/>
        </g>

        <g fill="#7e7e7e" fill-opacity="1" stroke="#989898" stroke-opacity="1" stroke-width="1" stroke-linecap="square"
           stroke-linejoin="bevel" transform="matrix(1,0,0,1,0,0)"
           font-family="" font-size="2.5" font-weight="400" font-style="normal"
        >
            <rect x="165" y="0" width="5" height="5"/>
        </g>

        <g fill="#7e7e7e" fill-opacity="1" stroke="#989898" stroke-opacity="1" stroke-width="1" stroke-linecap="square"
           stroke-linejoin="bevel" transform="matrix(1,0,0,1,0,0)"
           font-family="" font-size="2.5" font-weight="400" font-style="normal"
        >
            <rect x="170" y="0" width="5" height="5"/>
        </g>

        <g fill="#7e7e7e" fill-opacity="1" stroke="#989898" stroke-opacity="1" stroke-width="1" stroke-linecap="square"
           stroke-linejoin="bevel" transform="matrix(1,0,0,1,0,0)"
           font-family="" font-size="2.5" font-weight="400" font-style="normal"
        >
            <rect x="0" y="5" width="5" height="5"/>
        </g>

        <g fill="#7e7e7e" fill-opacity="1" stroke="#989898" stroke-opacity="1" stroke-width="1" stroke-linecap="square"
           stroke-linejoin="bevel" transform="matrix(1,0,0,1,0,0)"
           font-family="" font-size="2.5" font-weight="400" font-style="normal"
        >
            <rect x="5" y="5" width="5" height="5"/>
        </g>

        <g fill="#7e7e7e" fill-opacity="1" stroke="#989898" stroke-opacity="1" stroke-width="1" stroke-linecap="square"
           stroke-linejoin="bevel" transform="matrix(1,0,0,1,0,0)"
           font-family="" font-size="2.5" font-weight="400" font-style="normal"
        >
            <rect x="10" y="5" width="5" height="5"/>
        </g>

        <g fill="#7e7e7e" fill-opacity="1" stroke="#989898" stroke-opacity="1" stroke-width="1" stroke-linecap="square"
           stroke-linejoin="bevel" transform="matrix(1,0,0,1,0,0)"
           font-family="" font-size="2.5" font-weight="400" font-style="normal"
        >
            <rect x="15" y="5" width="5" height="5"/>
        </g>

        <g fill="#7e7e7e" fill-opacity="1" stroke="#989898" stroke-opacity="1" stroke-width="1" stroke-linecap="square"
           stroke-linejoin="bevel" transform="matrix(1,0,0,1,0,0)"
           font-family="" font-size="2.5" font-weight="400" font-style="normal"
        >
            <rect x="20" y="5" width="5" height="5"/>
        </g>

        <g fill="#ffff00" fill-opacity="1" stroke="#989898" stroke-opacity="1" stroke-width="1" stroke-linecap="square"
           stroke-linejoin="bevel" transform="matrix(1,0,0,1,0,0)"
           font-family="" font-size="2.5" font-weight="400" font-style="normal"
        >
            <rect x="25" y="5" width="5" height="5"/>
        </g>

        <g fill="#7e7e7e" fill-opacity="1" stroke="#989898" stroke-opacity="1" stroke-width="1" stroke-linecap="square"
           stroke-linejoin="bevel" transform="matrix(1,0,0,1,0,0)"
           font-family="" font-size="2.5" font-weight="400" font-style="normal"
        >
            <rect x="30" y="5" width="5" height="5"/>
        </g>

        <g fill="#7e7e7e" fill-opacity="1" stroke="#989898" stroke-opacity="1" stroke-width="1" stroke-linecap="square"
           stroke-linejoin="bevel" transform="matrix(1,0,0,1,0,0)"
           font-family="" font-size="2.5" font-weight="400" font-style="normal"
        >
            <rect x="35" y="5" width="5" height="5"/>
        </g>

        <g fill="#7e7e7e" fill-opacity="1" stroke="#989898" stroke-opacity="1" stroke-width="1" stroke-linecap="square"
           stroke-linejoin="bevel" transform="matrix(1,0,0,1,0,0)"
           font-family="" font-size="2.5" font-weight="400" font-style="normal"
        >
            <rect x="40" y="5" width="5" height="5"/>
        </g>

        <g fill="#7e7e7e" fill-opacity="1" stroke="#989898" stroke-opacity="1" stroke-width="1" stroke-linecap="square"
           stroke-linejoin="bevel" transform="matrix(1,0,0,1,0,0)"
           font-family="" font-size="2.5" font-weight="400" font-style="normal"
        >
            <rect x="45" y="5" width="5" height="5"/>
        </g>

        <g fill="#7e7e7e" fill-opacity="1" stroke="#989898" stroke-opacity="1" stroke-width="1" stroke-linecap="square"
           stroke-linejoin="bevel" transform="matrix(1,0,0,1,0,0)"
           font-family="" font-size="2.5" font-weight="400" font-style="normal"
        >
            <rect x="50" y="5" width="5" height="5"/>
        </g>

        <g fill="#7e7e7e" fill-opacity="1" stroke="#989898" stroke-opacity="1" stroke-width="1" stroke-linecap="square"
           stroke-linejoin="bevel" transform="matrix(1,0,0,1,0,0)"
           font-family="" font-size="2.5" font-weight="400" font-style="normal"
        >
            <rect x="55" y="5" width="5" height="5"/>
        </g>

        <g fill="#7e7e7e" fill-opacity="1" stroke="#989898" stroke-opacity="1" stroke-width="1" stroke-linecap="square"
           stroke-linejoin="bevel" transform="matrix(1,0,0,1,0,0)"
           font-family="" font-size="2.5" font-weight="400" font-style="normal"
        >
            <rect x="60" y="5" width="5" height="5"/>
        </g>

        <g fill="#7e7e7e" fill-opacity="1" stroke="#989898" stroke-opacity="1" stroke-width="1" stroke-linecap="square"
           stroke-linejoin="bevel" transform="matrix(1,0,0,1,0,0)"
           font-family="" font-size="2.5" font-weight="400" font-style="normal"
        >
            <rect x="65" y="5" width="5" height="5"/>
        </g>

        <g fill="#7e7e7e" fill-opacity="1" stroke="#989898" stroke-opacity="1" stroke-width="1" stroke-linecap="square"
           stroke-linejoin="bevel" transform="matrix(1,0,0,1,0,0)"
           font-family="" font-size="2.5" font-weight="400" font-style="normal"
        >
            <rect x="70" y="5" width="5" height="5"/>
        </g>

        <g fill="#7e7e7e" fill-opacity="1" stroke="#989898" stroke-opacity="1" stroke-width="1" stroke-linecap="square"
           stroke-linejoin="bevel" transform="matrix(1,0,0,1,0,0)"
           font-family="" font-size="2.5" font-weight="400" font-style="normal"
        >
            <rect x="75" y="5" width="5" height="5"/>
        </g>

        <g fill="#7e7e7e" fill-opacity="1" stroke="#989898" stroke-opacity="1" stroke-width="1" stroke-linecap="square"
           stroke-linejoin="bevel" transform="matrix(1,0,0,1,0,0)"
           font-family="" font-size="2.5" font-weight="400" font-style="normal"
        >
            <rect x="80" y="5" width="5" height="5"/>
        </g>

        <g fill="#ffff00" fill-opacity="1" stroke="#989898" stroke-opacity="1" stroke-width="1" stroke-linecap="square"
           stroke-linejoin="bevel" transform="matrix(1,0,0,1,0,0)"
           font-family="" font-size="2.5" font-weight="400" font-style="normal"
        >
            <rect x="85" y="5" width="5" height="5"/>
        </g>

        <g fill="#ffff00" fill-opacity="1" stroke="#989898" stroke-opacity="1" stroke-width="1" stroke-linecap="square"
           stroke-linejoin="bevel" transform="matrix(1,0,0,1,0,0)"
           font-family="" font-size="2.5" font-weight="400" font-style="normal"
        >
            <rect x="90" y="5" width="5" height="5"/>
        </g>

        <g fill="#ffff00" fill-opacity="1" stroke="#989898" stroke-opacity="1" stroke-width="1" stroke-linecap="square"
           stroke-linejoin="bevel" transform="matrix(1,0,0,1,0,0)"
           font-family="" font-size="2.5" font-weight="400" font-style="normal"
        >
            <rect x="95" y="5" width="5" height="5"/>
        </g>

        <g fill="#ffff00" fill-opacity="1" stroke="#989898" stroke-opacity="1" stroke-width="1" stroke-linecap="square"
           stroke-linejoin="bevel" transform="matrix(1,0,0,1,0,0)"
           font-family="" font-size="2.5" font-weight="400" font-style="normal"
        >
            <rect x="100" y="5" width="5" height="5"/>
        </g>

        <g fill="#7e7e7e" fill-opacity="1" stroke="#989898" stroke-opacity="1" stroke-width="1" stroke-linecap="square"
           stroke-linejoin="bevel" transform="matrix(1,0,0,1,0,0)"
           font-family="" font-size="2.5" font-weight="400" font-style="normal"
        >
            <rect x="105" y="5" width="5" height="5"/>
        </g>

        <g fill="#7e7e7e" fill-opacity="1" stroke="#989898" stroke-opacity="1" stroke-width="1" stroke-linecap="square"
           stroke-linejoin="bevel" transform="matrix(1,0,0,1,0,0)"
           font-family="" font-size="2.5" font-weight="400" font-style="normal"
        >
            <rect x="110" y="5" width="5" height="5"/>
        </g>

        <g fill="#7e7e7e" fill-opacity="1" stroke="#989898" stroke-opacity="1" stroke-width="1" stroke-linecap="square"
           stroke-linejoin="bevel" transform="matrix(1,0,0,1,0,0)"
           font-family="" font-size="2.5" font-weight="400" font-style="normal"
        >
            <rect x="115" y="5" width="5" height="5"/>
        </g>

        <g fill="#7e7e7e" fill-opacity="1" stroke="#989898" stroke-opacity="1" stroke-width="1" stroke-linecap="square"
           stroke-linejoin="bevel" transform="matrix(1,0,0,1,0,0)"
           font-family="" font-size="2.5" font-weight="400" font-style="normal"
        >
            <rect x="120" y="5" width="5" height="5"/>
        </g>

        <g fill="#7e7e7e" fill-opacity="1" stroke="#989898" stroke-opacity="1" stroke-width="1" stroke-linecap="square"
           stroke-linejoin="bevel" transform="matrix(1,0,0,1,0,0)"
           font-family="" font-size="2.5" font-weight="400" font-style="normal"
        >
            <rect x="125" y="5" width="5" height="5"/>
        </g>

        <g fill="#7e7e7e" fill-opacity="1" stroke="#989898" stroke-opacity="1" stroke-width="1" stroke-linecap="square"
           stroke-linejoin="bevel" transform="matrix(1,0,0,1,0,0)"
           font-family="" font-size="2.5" font-weight="400" font-style="normal"
        >
            <rect x="130" y="5" width="5" height="5"/>
        </g>

        <g fill="#7e7e7e" fill-opacity="1" stroke="#989898" stroke-opacity="1" stroke-width="1" stroke-linecap="square"
           stroke-linejoin="bevel" transform="matrix(1,0,0,1,0,0)"
           font-family="" font-size="2.5" font-weight="400" font-style="normal"
        >
            <rect x="135" y="5" width="5" height="5"/>
        </g>

        <g fill="#7e7e7e" fill-opacity="1" stroke="#989898" stroke-opacity="1" stroke-width="1" stroke-linecap="square"
           stroke-linejoin="bevel" transform="matrix(1,0,0,1,0,0)"
           font-family="" font-size="2.5" font-weight="400" font-style="normal"
        >
            <rect x="140" y="5" width="5" height="5"/>
        </g>

        <g fill="#7e7e7e" fill-opacity="1" stroke="#989898" stroke-opacity="1" stroke-width="1" stroke-linecap="square"
           stroke-linejoin="bevel" transform="matrix(1,0,0,1,0,0)"
           font-family="" font-size="2.5" font-weight="400" font-style="normal"
        >
            <rect x="145" y="5" width="5" height="5"/>
        </g>

        <g fill="#7e7e7e" fill-opacity="1" stroke="#989898" stroke-opacity="1" stroke-width="1" stroke-linecap="square"
           stroke-linejoin="bevel" transform="matrix(1,0,0,1,0,0)"
           font-family="" font-size="2.5" font-weight="400" font-style="normal"
        >
            <rect x="150" y="5" width="5" height="5"/>
        </g>

        <g fill="#7e7e7e" fill-opacity="1" stroke="#989898" stroke-opacity="1" stroke-width="1" stroke-linecap="square"
           stroke-linejoin="bevel" transform="matrix(1,0,0,1,0,0)"
           font-family="" font-size="2.5" font-weight="400" font-style="normal"
        >
            <rect x="155" y="5" width="5" height="5"/>
        </g>

        <g fill="#7e7e7e" fill-opacity="1" stroke="#989898" stroke-opacity="1" stroke-width="1" stroke-linecap="square"
           stroke-linejoin="bevel" transform="matrix(1,0,0,1,0,0)"
           font-family="" font-size="2.5" font-weight="400" font-style="normal"
        >
            <rect x="160" y="5" width="5" height="5"/>
        </g>

        <g fill="#7e7e7e" fill-opacity="1" stroke="#989898" stroke-opacity="1" stroke-width="1" stroke-linecap="square"
           stroke-linejoin="bevel" transform="matrix(1,0,0,1,0,0)"
           font-family="" font-size="2.5" font-weight="400" font-style="normal"
        >
            <rect x="165" y="5" width="5" height="5"/>
        </g>

        <g fill="#7e7e7e" fill-opacity="1" stroke="#989898" stroke-opacity="1" stroke-width="1" stroke-linecap="square"
           stroke-linejoin="bevel" transform="matrix(1,0,0,1,0,0)"
           font-family="" font-size="2.5" font-weight="400" font-style="normal"
        >
            <rect x="170" y="5" width="5" height="5"/>
        </g>

        <g fill="#7e7e7e" fill-opacity="1" stroke="#989898" stroke-opacity="1" stroke-width="1" stroke-linecap="square"
           stroke-linejoin="bevel" transform="matrix(1,0,0,1,0,0)"
           font-family="" font-size="2.5" font-weight="400" font-style="normal"
        >
            <rect x="0" y="10" width="5" height="5"/>
        </g>

        <g fill="#7e7e7e" fill-opacity="1" stroke="#989898" stroke-opacity="1" stroke-width="1" stroke-linecap="square"
           stroke-linejoin="bevel" transform="matrix(1,0,0,1,0,0)"
           font-family="" font-size="2.5" font-weight="400" font-style="normal"
        >
            <rect x="5" y="10" width="5" height="5"/>
        </g>

        <g fill="#7e7e7e" fill-opacity="1" stroke="#989898" stroke-opacity="1" stroke-width="1" stroke-linecap="square"
           stroke-linejoin="bevel" transform="matrix(1,0,0,1,0,0)"
           font-family="" font-size="2.5" font-weight="400" font-style="normal"
        >
            <rect x="10" y="10" width="5" height="5"/>
        </g>

        <g fill="#7e7e7e" fill-opacity="1" stroke="#989898" stroke-opacity="1" stroke-width="1" stroke-linecap="square"
           stroke-linejoin="bevel" transform="matrix(1,0,0,1,0,0)"
           font-family="" font-size="2.5" font-weight="400" font-style="normal"
        >
            <rect x="15" y="10" width="5" height="5"/>
        </g>

        <g fill="#7e7e7e" fill-opacity="1" stroke="#989898" stroke-opacity="1" stroke-width="1" stroke-linecap="square"
           stroke-linejoin="bevel" transform="matrix(1,0,0,1,0,0)"
           font-family="" font-size="2.5" font-weight="400" font-style="normal"
        >
            <rect x="20" y="10" width="5" height="5"/>
        </g>

        <g fill="#7e7e7e" fill-opacity="1" stroke="#989898" stroke-opacity="1" stroke-width="1" stroke-linecap="square"
           stroke-linejoin="bevel" transform="matrix(1,0,0,1,0,0)"
           font-family="" font-size="2.5" font-weight="400" font-style="normal"
        >
            <rect x="25" y="10" width="5" height="5"/>
        </g>

        <g fill="#7e7e7e" fill-opacity="1" stroke="#989898" stroke-opacity="1" stroke-width="1" stroke-linecap="square"
           stroke-linejoin="bevel" transform="matrix(1,0,0,1,0,0)"
           font-family="" font-size="2.5" font-weight="400" font-style="normal"
        >
            <rect x="30" y="10" width="5" height="5"/>
        </g>

        <g fill="#7e7e7e" fill-opacity="1" stroke="#989898" stroke-opacity="1" stroke-width="1" stroke-linecap="square"
           stroke-linejoin="bevel" transform="matrix(1,0,0,1,0,0)"
           font-family="" font-size="2.5" font-weight="400" font-style="normal"
        >
            <rect x="35" y="10" width="5" height="5"/>
        </g>

        <g fill="#7e7e7e" fill-opacity="1" stroke="#989898" stroke-opacity="1" stroke-width="1" stroke-linecap="square"
           stroke-linejoin="bevel" transform="matrix(1,0,0,1,0,0)"
           font-family="" font-size="2.5" font-weight="400" font-style="normal"
        >
            <rect x="40" y="10" width="5" height="5"/>
        </g>

        <g fill="#7e7e7e" fill-opacity="1" stroke="#989898" stroke-opacity="1" stroke-width="1" stroke-linecap="square"
           stroke-linejoin="bevel" transform="matrix(1,0,0,1,0,0)"
           font-family="" font-size="2.5" font-weight="400" font-style="normal"
        >
            <rect x="45" y="10" width="5" height="5"/>
        </g>

        <g fill="#7e7e7e" fill-opacity="1" stroke="#989898" stroke-opacity="1" stroke-width="1" stroke-linecap="square"
           stroke-linejoin="bevel" transform="matrix(1,0,0,1,0,0)"
           font-family="" font-size="2.5" font-weight="400" font-style="normal"
        >
            <rect x="50" y="10" width="5" height="5"/>
        </g>

        <g fill="#7e7e7e" fill-opacity="1" stroke="#989898" stroke-opacity="1" stroke-width="1" stroke-linecap="square"
           stroke-linejoin="bevel" transform="matrix(1,0,0,1,0,0)"
           font-family="" font-size="2.5" font-weight="400" font-style="normal"
        >
            <rect x="55" y="10" width="5" height="5"/>
        </g>

        <g fill="#7e7e7e" fill-opacity="1" stroke="#989898" stroke-opacity="1" stroke-width="1" stroke-linecap="square"
           stroke-linejoin="bevel" transform="matrix(1,0,0,1,0,0)"
           font-family="" font-size="2.5" font-weight="400" font-style="normal"
        >
            <rect x="60" y="10" width="5" height="5"/>
        </g>

        <g fill="#7e7e7e" fill-opacity="1" stroke="#989898" stroke-opacity="1" stroke-width="1" stroke-linecap="square"
           stroke-linejoin="bevel" transform="matrix(1,0,0,1,0,0)"
           font-family="" font-size="2.5" font-weight="400" font-style="normal"
        >
            <rect x="65" y="10" width="5" height="5"/>
        </g>

        <g fill="#7e7e7e" fill-opacity="1" stroke="#989898" stroke-opacity="1" stroke-width="1" stroke-linecap="square"
           stroke-linejoin="bevel" transform="matrix(1,0,0,1,0,0)"
           font-family="" font-size="2.5" font-weight="400" font-style="normal"
        >
            <rect x="70" y="10" width="5" height="5"/>
        </g>

        <g fill="#7e7e7e" fill-opacity="1" stroke="#989898" stroke-opacity="1" stroke-width="1" stroke-linecap="square"
           stroke-linejoin="bevel" transform="matrix(1,0,0,1,0,0)"
           font-family="" font-size="2.5" font-weight="400" font-style="normal"
        >
            <rect x="75" y="10" width="5" height="5"/>
        </g>

        <g fill="#7e7e7e" fill-opacity="1" stroke="#989898" stroke-opacity="1" stroke-width="1" stroke-linecap="square"
           stroke-linejoin="bevel" transform="matrix(1,0,0,1,0,0)"
           font-family="" font-size="2.5" font-weight="400" font-style="normal"
        >
            <rect x="80" y="10" width="5" height="5"/>
        </g>

        <g fill="#7e7e7e" fill-opacity="1" stroke="#989898" stroke-opacity="1" stroke-width="1" stroke-linecap="square"
           stroke-linejoin="bevel" transform="matrix(1,0,0,1,0,0)"
           font-family="" font-size="2.5" font-weight="400" font-style="normal"
        >
            <rect x="85" y="10" width="5" height="5"/>
        </g>

        <g fill="#7e7e7e" fill-opacity="1" stroke="#989898" stroke-opacity="1" stroke-width="1" stroke-linecap="square"
           stroke-linejoin="bevel" transform="matrix(1,0,0,1,0,0)"
           font-family="" font-size="2.5" font-weight="400" font-style="normal"
        >
            <rect x="90" y="10" width="5" height="5"/>
        </g>

        <g fill="#7e7e7e" fill-opacity="1" stroke="#989898" stroke-opacity="1" stroke-width="1" stroke-linecap="square"
           stroke-linejoin="bevel" transform="matrix(1,0,0,1,0,0)"
           font-family="" font-size="2.5" font-weight="400" font-style="normal"
        >
            <rect x="95" y="10" width="5" height="5"/>
        </g>

        <g fill="#7e7e7e" fill-opacity="1" stroke="#989898" stroke-opacity="1" stroke-width="1" stroke-linecap="square"
           stroke-linejoin="bevel" transform="matrix(1,0,0,1,0,0)"
           font-family="" font-size="2.5" font-weight="400" font-style="normal"
        >
            <rect x="100" y="10" width="5" height="5"/>
        </g>

        <g fill="#7e7e7e" fill-opacity="1" stroke="#989898" stroke-opacity="1" stroke-width="1" stroke-linecap="square"
           stroke-linejoin="bevel" transform="matrix(1,0,0,1,0,0)"
           font-family="" font-size="2.5" font-weight="400" font-style="normal"
        >
            <rect x="105" y="10" width="5" height="5"/>
        </g>

        <g fill="#7e7e7e" fill-opacity="1" stroke="#989898" stroke-opacity="1" stroke-width="1" stroke-linecap="square"
           stroke-linejoin="bevel" transform="matrix(1,0,0,1,0,0)"
           font-family="" font-size="2.5" font-weight="400" font-style="normal"
        >
            <rect x="110" y="10" width="5" height="5"/>
        </g>

        <g fill="#7e7e7e" fill-opacity="1" stroke="#989898" stroke-opacity="1" stroke-width="1" stroke-linecap="square"
           stroke-linejoin="bevel" transform="matrix(1,0,0,1,0,0)"
           font-family="" font-size="2.5" font-weight="400" font-style="normal"
        >
            <rect x="115" y="10" width="5" height="5"/>
        </g>

        <g fill="#7e7e7e" fill-opacity="1" stroke="#989898" stroke-opacity="1" stroke-width="1" stroke-linecap="square"
           stroke-linejoin="bevel" transform="matrix(1,0,0,1,0,0)"
           font-family="" font-size="2.5" font-weight="400" font-style="normal"
        >
            <rect x="120" y="10" width="5" height="5"/>
        </g>

        <g fill="#7e7e7e" fill-opacity="1" stroke="#989898" stroke-opacity="1" stroke-width="1" stroke-linecap="square"
           stroke-linejoin="bevel" transform="matrix(1,0,0,1,0,0)"
           font-family="" font-size="2.5" font-weight="400" font-style="normal"
        >
            <rect x="125" y="10" width="5" height="5"/>
        </g>

        <g fill="#7e7e7e" fill-opacity="1" stroke="#989898" stroke-opacity="1" stroke-width="1" stroke-linecap="square"
           stroke-linejoin="bevel" transform="matrix(1,0,0,1,0,0)"
           font-family="" font-size="2.5" font-weight="400" font-style="normal"
        >
            <rect x="130" y="10" width="5" height="5"/>
        </g>

        <g fill="#7e7e7e" fill-opacity="1" stroke="#989898" stroke-opacity="1" stroke-width="1" stroke-linecap="square"
           stroke-linejoin="bevel" transform="matrix(1,0,0,1,0,0)"
           font-family="" font-size="2.5" font-weight="400" font-style="normal"
        >
            <rect x="135" y="10" width="5" height="5"/>
        </g>

        <g fill="#7e7e7e" fill-opacity="1" stroke="#989898" stroke-opacity="1" stroke-width="1" stroke-linecap="square"
           stroke-linejoin="bevel" transform="matrix(1,0,0,1,0,0)"
           font-family="" font-size="2.5" font-weight="400" font-style="normal"
        >
            <rect x="140" y="10" width="5" height="5"/>
        </g>

        <g fill="#7e7e7e" fill-opacity="1" stroke="#989898" stroke-opacity="1" stroke-width="1" stroke-linecap="square"
           stroke-linejoin="bevel" transform="matrix(1,0,0,1,0,0)"
           font-family="" font-size="2.5" font-weight="400" font-style="normal"
        >
            <rect x="145" y="10" width="5" height="5"/>
        </g>

        <g fill="#7e7e7e" fill-opacity="1" stroke="#989898" stroke-opacity="1" stroke-width="1" stroke-linecap="square"
           stroke-linejoin="bevel" transform="matrix(1,0,0,1,0,0)"
           font-family="" font-size="2.5" font-weight="400" font-style="normal"
        >
            <rect x="150" y="10" width="5" height="5"/>
        </g>

        <g fill="#7e7e7e" fill-opacity="1" stroke="#989898" stroke-opacity="1" stroke-width="1" stroke-linecap="square"
           stroke-linejoin="bevel" transform="matrix(1,0,0,1,0,0)"
           font-family="" font-size="2.5" font-weight="400" font-style="normal"
        >
            <rect x="155" y="10" width="5" height="5"/>
        </g>

        <g fill="#7e7e7e" fill-opacity="1" stroke="#989898" stroke-opacity="1" stroke-width="1" stroke-linecap="square"
           stroke-linejoin="bevel" transform="matrix(1,0,0,1,0,0)"
           font-family="" font-size="2.5" font-weight="400" font-style="normal"
        >
            <rect x="160" y="10" width="5" height="5"/>
        </g>

        <g fill="#7e7e7e" fill-opacity="1" stroke="#989898" stroke-opacity="1" stroke-width="1" stroke-linecap="square"
           stroke-linejoin="bevel" transform="matrix(1,0,0,1,0,0)"
           font-family="" font-size="2.5" font-weight="400" font-style="normal"
        >
            <rect x="165" y="10" width="5" height="5"/>
        </g>

        <g fill="#7e7e7e" fill-opacity="1" stroke="#989898" stroke-opacity="1" stroke-width="1" stroke-linecap="square"
           stroke-linejoin="bevel" transform="matrix(1,0,0,1,0,0)"
           font-family="" font-size="2.5" font-weight="400" font-style="normal"
        >
            <rect x="170" y="10" width="5" height="5"/>
        </g>
    </g>
</svg>
