<?xml version="1.0" encoding="UTF-8" standalone="no"?>
<svg
        xmlns:inkscape="http://www.inkscape.org/namespaces/inkscape"
        xmlns:sodipodi="http://sodipodi.sourceforge.net/DTD/sodipodi-0.dtd"
        viewBox="0 0 513 449"
        version="1.1"
        id="svg1"
        sodipodi:docname="grid.svg"
        inkscape:version="1.3.2 (1:1.3.2+202311252150+091e20ef0f)"
        width="513"
        height="449"
        xmlns="http://www.w3.org/2000/svg"
>
    <defs
            id="defs1"/>
    <sodipodi:namedview
            id="namedview1"
            pagecolor="#ffffff"
            bordercolor="#000000"
            borderopacity="0.25"
            inkscape:showpageshadow="2"
            inkscape:pageopacity="0.0"
            inkscape:pagecheckerboard="0"
            inkscape:deskcolor="#d1d1d1"
            inkscape:zoom="1.5839844"
            inkscape:cx="254.4217"
            inkscape:cy="218.75215"
            inkscape:window-width="1860"
            inkscape:window-height="1011"
            inkscape:window-x="0"
            inkscape:window-y="0"
            inkscape:window-maximized="1"
            inkscape:current-layer="svg1"
            inkscape:export-bgcolor="#00000000"/>
    <!--!Font Awesome Free 6.6.0 by @fontawesome - https://fontawesome.com License - https://fontawesome.com/license/free Copyright 2024 Fonticons, Inc.-->
    <path
            d="m 64.5,0.5 c -35.3,0 -64,28.7 -64,64 v 320 c 0,35.3 28.7,64 64,64 h 384 c 35.3,0 64,-28.7 64,-64 v -320 c 0,-35.3 -28.7,-64 -64,-64 z m 88,64 v 64 h -88 v -64 z m 56,0 h 88 v 64 h -88 z m 240,0 v 64 h -88 v -64 z m -384,128 h 88 v 64 h -88 z m 232,0 v 64 h -88 v -64 z m 64,0 h 88 v 64 h -88 z m -208,128 v 64 h -88 v -64 z m 56,0 h 88 v 64 h -88 z m 240,0 v 64 h -88 v -64 z"
            id="path1"
            style="stroke:#2a4e97;stroke-opacity:1;fill:#2a4e97;fill-opacity:1"/>
</svg>
