<?xml version="1.0" encoding="UTF-8" standalone="no"?>
<svg
        xmlns:inkscape="http://www.inkscape.org/namespaces/inkscape"
        xmlns:sodipodi="http://sodipodi.sourceforge.net/DTD/sodipodi-0.dtd"
        viewBox="0 0 576 512"
        version="1.1"
        id="svg1"
        sodipodi:docname="lexicon.svg"
        inkscape:version="1.3.2 (1:1.3.2+202311252150+091e20ef0f)"
        xmlns="http://www.w3.org/2000/svg"
>
    <defs
            id="defs1"/>
    <sodipodi:namedview
            id="namedview1"
            pagecolor="#ffffff"
            bordercolor="#000000"
            borderopacity="0.25"
            inkscape:showpageshadow="2"
            inkscape:pageopacity="0.0"
            inkscape:pagecheckerboard="0"
            inkscape:deskcolor="#d1d1d1"
            inkscape:export-bgcolor="#00000000"
            inkscape:zoom="1.5839844"
            inkscape:cx="287.88163"
            inkscape:cy="256"
            inkscape:window-width="1860"
            inkscape:window-height="1011"
            inkscape:window-x="0"
            inkscape:window-y="0"
            inkscape:window-maximized="1"
            inkscape:current-layer="svg1"/>
    <!--!Font Awesome Free 6.6.0 by @fontawesome - https://fontawesome.com License - https://fontawesome.com/license/free Copyright 2024 Fonticons, Inc.-->
    <path
            d="M249.6 471.5c10.8 3.8 22.4-4.1 22.4-15.5l0-377.4c0-4.2-1.6-8.4-5-11C247.4 52 202.4 32 144 32C93.5 32 46.3 45.3 18.1 56.1C6.8 60.5 0 71.7 0 83.8L0 454.1c0 11.9 12.8 20.2 24.1 16.5C55.6 460.1 105.5 448 144 448c33.9 0 79 14 105.6 23.5zm76.8 0C353 462 398.1 448 432 448c38.5 0 88.4 12.1 119.9 22.6c11.3 3.8 24.1-4.6 24.1-16.5l0-370.3c0-12.1-6.8-23.3-18.1-27.6C529.7 45.3 482.5 32 432 32c-58.4 0-103.4 20-123 35.6c-3.3 2.6-5 6.8-5 11L304 456c0 11.4 11.7 19.3 22.4 15.5z"
            id="path1"
            style="fill:#fffffa;fill-opacity:1"/>
</svg>
