<?xml version="1.0" encoding="UTF-8" standalone="no"?>
<svg
        xmlns:inkscape="http://www.inkscape.org/namespaces/inkscape"
        xmlns:sodipodi="http://sodipodi.sourceforge.net/DTD/sodipodi-0.dtd"
        viewBox="0 0 512 512"
        version="1.1"
        id="svg1"
        sodipodi:docname="next.svg"
        inkscape:version="1.3.2 (1:1.3.2+202311252150+091e20ef0f)"
        xmlns="http://www.w3.org/2000/svg"
>
    <defs
            id="defs1"/>
    <sodipodi:namedview
            id="namedview1"
            pagecolor="#ffffff"
            bordercolor="#000000"
            borderopacity="0.25"
            inkscape:showpageshadow="2"
            inkscape:pageopacity="0.0"
            inkscape:pagecheckerboard="0"
            inkscape:deskcolor="#d1d1d1"
            inkscape:export-bgcolor="#00000000"
            inkscape:zoom="1.5839844"
            inkscape:cx="255.68434"
            inkscape:cy="256"
            inkscape:window-width="1860"
            inkscape:window-height="1011"
            inkscape:window-x="0"
            inkscape:window-y="0"
            inkscape:window-maximized="1"
            inkscape:current-layer="svg1"/>
    <!--!Font Awesome Free 6.6.0 by @fontawesome - https://fontawesome.com License - https://fontawesome.com/license/free Copyright 2024 Fonticons, Inc.-->
    <path
            d="M307 34.8c-11.5 5.1-19 16.6-19 29.2l0 64-112 0C78.8 128 0 206.8 0 304C0 417.3 81.5 467.9 100.2 478.1c2.5 1.4 5.3 1.9 8.1 1.9c10.9 0 19.7-8.9 19.7-19.7c0-7.5-4.3-14.4-9.8-19.5C108.8 431.9 96 414.4 96 384c0-53 43-96 96-96l96 0 0 64c0 12.6 7.4 24.1 19 29.2s25 3 34.4-5.4l160-144c6.7-6.1 10.6-14.7 10.6-23.8s-3.8-17.7-10.6-23.8l-160-144c-9.4-8.5-22.9-10.6-34.4-5.4z"
            id="path1"
            style="fill:#fffffc;fill-opacity:1"/>
</svg>
